<svg xmlns="http://www.w3.org/2000/svg" xmlns:xlink="http://www.w3.org/1999/xlink" width="109" height="109" viewBox="0 0 109 109">
  <defs>
    <filter id="Trazado_874925" x="0" y="0" width="109" height="109" filterUnits="userSpaceOnUse">
      <feOffset dy="3" input="SourceAlpha"/>
      <feGaussianBlur stdDeviation="3" result="blur"/>
      <feFlood flood-opacity="0.161"/>
      <feComposite operator="in" in2="blur"/>
      <feComposite in="SourceGraphic"/>
    </filter>
  </defs>
  <g id="Grupo_1109782" data-name="Grupo 1109782" transform="translate(9 6)">
    <g transform="matrix(1, 0, 0, 1, -9, -6)" filter="url(#Trazado_874925)">
      <g id="Trazado_874925-2" data-name="Trazado 874925" transform="translate(9 6)" fill="#efd42f">
        <path d="M 45.49974822998047 89.5 C 39.55916213989258 89.5 33.79706192016602 88.33686065673828 28.3735237121582 86.04289245605469 C 23.13423538208008 83.82687377929688 18.42857360839844 80.65412139892578 14.38722324371338 76.61278533935547 C 10.34588527679443 72.57143402099609 7.173135757446289 67.86576843261719 4.957098007202148 62.62649536132812 C 2.663135766983032 57.20294570922852 1.499998211860657 51.44085693359375 1.499998211860657 45.50027084350586 C 1.499998211860657 39.55915832519531 2.663135766983032 33.79705810546875 4.957098007202148 28.37352180480957 C 7.173135757446289 23.13424682617188 10.34588527679443 18.4285717010498 14.38722324371338 14.38722133636475 C 18.42857360839844 10.3458833694458 23.13424873352051 7.173133850097656 28.3735237121582 4.957096099853516 C 33.79706192016602 2.66313362121582 39.55916213989258 1.499996185302734 45.49974822998047 1.499996185302734 C 51.44033432006836 1.499996185302734 57.20243453979492 2.66313362121582 62.62597274780273 4.957096099853516 C 67.86524963378906 7.173133850097656 72.5709228515625 10.3458833694458 76.61227416992188 14.38722133636475 C 80.65361022949219 18.4285717010498 83.82636260986328 23.13424682617188 86.04239654541016 28.37352180480957 C 88.33635711669922 33.79705810546875 89.49949645996094 39.55915832519531 89.49949645996094 45.4997444152832 C 89.49949645996094 51.44085693359375 88.33635711669922 57.20294570922852 86.04239654541016 62.62649536132812 C 83.82636260986328 67.86576843261719 80.65361022949219 72.57143402099609 76.61227416992188 76.61278533935547 C 72.5709228515625 80.65412139892578 67.86525726318359 83.82687377929688 62.62597274780273 86.04289245605469 C 57.20243453979492 88.33686065673828 51.44033432006836 89.5 45.49974822998047 89.5 Z" stroke="none"/>
        <path d="M 45.49974822998047 2.999992370605469 C 39.76099014282227 2.999992370605469 34.19549179077148 4.123268127441406 28.95784759521484 6.338607788085938 C 23.89736175537109 8.479011535644531 19.35195159912109 11.54380798339844 15.4478759765625 15.44789886474609 C 11.54380798339844 19.35196685791016 8.47900390625 23.89736938476562 6.338607788085938 28.95785522460938 C 4.123260498046875 34.19551086425781 2.999992370605469 39.7609977722168 2.999992370605469 45.50026702880859 C 2.999992370605469 51.2390251159668 4.123260498046875 56.80451202392578 6.338607788085938 62.04216766357422 C 8.47900390625 67.10263824462891 11.54380798339844 71.64805603027344 15.4478759765625 75.55210876464844 C 19.35195159912109 79.45618438720703 23.89736175537109 82.52098083496094 28.95784759521484 84.66139221191406 C 34.19549179077148 86.87672424316406 39.76099014282227 88 45.49974822998047 88 C 51.23850631713867 88 56.80398941040039 86.87672424316406 62.04164886474609 84.66139221191406 C 67.10213470458984 82.52098083496094 71.64753723144531 79.45618438720703 75.55160522460938 75.55210876464844 C 79.45567321777344 71.64805603027344 82.52047729492188 67.10263824462891 84.66087341308594 62.04216766357422 C 86.876220703125 56.80451202392578 87.99948883056641 51.2390251159668 87.99948883056641 45.49975204467773 C 87.99948883056641 39.7609977722168 86.876220703125 34.19551086425781 84.66087341308594 28.95785522460938 C 82.52047729492188 23.89736938476562 79.45567321777344 19.35196685791016 75.55160522460938 15.44789886474609 C 71.64753723144531 11.54380798339844 67.10211944580078 8.479011535644531 62.04164886474609 6.338607788085938 C 56.80398941040039 4.123268127441406 51.23850631713867 2.999992370605469 45.49974822998047 2.999992370605469 M 45.49974822998047 -7.62939453125e-06 C 70.62856292724609 -7.62939453125e-06 90.99948883056641 20.37094116210938 90.99948883056641 45.49975204467773 L 90.99948883056641 45.50026702880859 C 90.99948883056641 70.62908172607422 70.62856292724609 91 45.49974822998047 91 C 20.37091827392578 91 -7.62939453125e-06 70.62908172607422 -7.62939453125e-06 45.50026702880859 L -7.62939453125e-06 45.49975204467773 C -7.62939453125e-06 20.37094116210938 20.37091827392578 -7.62939453125e-06 45.49974822998047 -7.62939453125e-06 Z" stroke="none" fill="#fff"/>
      </g>
    </g>
    <g id="Layer_2" data-name="Layer 2" transform="translate(13.9 13.9)">
      <path id="Trazado_897972" data-name="Trazado 897972" d="M60.819,27.59,58.2,27.263a26.672,26.672,0,0,0-1.275-4.788l2.1-1.589a1.986,1.986,0,0,0,.521-2.581l-2.218-3.842a1.986,1.986,0,0,0-2.492-.837L52.4,14.651a26.907,26.907,0,0,0-3.5-3.5l1.026-2.424a1.986,1.986,0,0,0-.837-2.492L45.248,4.014a1.986,1.986,0,0,0-2.577.521l-1.589,2.1a26.673,26.673,0,0,0-4.788-1.275L35.967,2.74A1.986,1.986,0,0,0,34,1H29.561A1.986,1.986,0,0,0,27.59,2.74l-.328,2.618a26.673,26.673,0,0,0-4.788,1.275l-1.589-2.1A1.986,1.986,0,0,0,18.3,4.014L14.468,6.232a1.986,1.986,0,0,0-.837,2.492l1.026,2.43a26.907,26.907,0,0,0-3.5,3.5l-2.43-1.026a1.986,1.986,0,0,0-2.492.837L4.014,18.311a1.986,1.986,0,0,0,.521,2.581l2.1,1.589a26.673,26.673,0,0,0-1.275,4.788L2.74,27.6A1.986,1.986,0,0,0,1,29.561V34a1.986,1.986,0,0,0,1.74,1.971l2.618.328a26.673,26.673,0,0,0,1.275,4.788l-2.1,1.589a1.986,1.986,0,0,0-.521,2.577l2.218,3.842a1.986,1.986,0,0,0,2.492.837l2.43-1.026a26.907,26.907,0,0,0,3.5,3.5l-1.026,2.429a1.986,1.986,0,0,0,.837,2.492l3.842,2.218a1.986,1.986,0,0,0,2.581-.521l1.589-2.1A26.673,26.673,0,0,0,27.269,58.2l.328,2.618a1.986,1.986,0,0,0,1.965,1.74H34a1.986,1.986,0,0,0,1.971-1.74L36.3,58.2a26.673,26.673,0,0,0,4.788-1.275l1.589,2.1a1.986,1.986,0,0,0,2.577.521l3.842-2.218a1.986,1.986,0,0,0,.837-2.492L48.9,52.4a26.907,26.907,0,0,0,3.5-3.5l2.43,1.026a1.986,1.986,0,0,0,2.492-.837l2.218-3.842a1.986,1.986,0,0,0-.521-2.577l-2.1-1.589A26.672,26.672,0,0,0,58.2,36.295l2.618-.328A1.986,1.986,0,0,0,62.558,34V29.561a1.986,1.986,0,0,0-1.74-1.971ZM31.863,52.715A20.893,20.893,0,1,1,52.756,31.822,20.893,20.893,0,0,1,31.863,52.715Z" transform="translate(-0.007 -0.007)" fill="#f8c460"/>
      <path id="Trazado_897973" data-name="Trazado 897973" d="M25.583,18.573l-.7-.7a2.979,2.979,0,0,0-4.207,0l1.4,1.4a1.983,1.983,0,0,1-2.8,2.8l-1.4-1.4a2.979,2.979,0,0,0,0,4.207l.7.7a2.979,2.979,0,0,0,4.206,0L38.2,41.008a2.979,2.979,0,0,0,0,4.206l.7.7a2.979,2.979,0,0,0,4.207,0l-1.4-1.4a1.983,1.983,0,0,1,2.8-2.8l1.4,1.4a2.979,2.979,0,0,0,0-4.207l-.7-.7a2.979,2.979,0,0,0-4.206,0L25.583,22.779a2.979,2.979,0,0,0,0-4.206Z" transform="translate(-0.121 -0.121)" fill="#d6e4e8"/>
      <path id="Trazado_897974" data-name="Trazado 897974" d="M40.393,44.452l-.7-.7a2.979,2.979,0,0,1,0-4.206L24.268,24.12a2.979,2.979,0,0,1-4.206,0l-.7-.7a2.97,2.97,0,0,1-.872-2.1l-.618-.619a2.979,2.979,0,0,0,0,4.207l.7.7a2.979,2.979,0,0,0,4.206,0L38.2,41.034a2.979,2.979,0,0,0,0,4.206l.7.7a2.979,2.979,0,0,0,4.207,0l-.619-.618A2.97,2.97,0,0,1,40.393,44.452Z" transform="translate(-0.121 -0.147)" fill="#baced3"/>
      <path id="Trazado_897975" data-name="Trazado 897975" d="M26.386,33.368l4.159,4.159L23.52,44.552a2.94,2.94,0,0,1-4.158-4.158Z" transform="translate(-0.132 -0.238)" fill="#7a838b"/>
      <path id="Trazado_897976" data-name="Trazado 897976" d="M28.561,35.557l-7.026,7.025a2.928,2.928,0,0,1-2.9.731,2.9,2.9,0,0,0,.731,1.255,2.939,2.939,0,0,0,4.158,0l7.026-7.025Z" transform="translate(-0.133 -0.253)" fill="#5d6972"/>
      <path id="Trazado_897977" data-name="Trazado 897977" d="M40.91,20.193l3.466-.693-.693,3.465L29.914,36.735l-2.773-2.773Z" transform="translate(-0.193 -0.139)" fill="#d6e4e8"/>
      <path id="Trazado_897978" data-name="Trazado 897978" d="M43.148,19.748A7.485,7.485,0,0,1,41.1,23.577L28.934,35.742l.993.993,13.767-13.77.7-3.465Z" transform="translate(-0.206 -0.139)" fill="#baced3"/>
      <path id="Trazado_897979" data-name="Trazado 897979" d="M49.661,54.294A30.793,30.793,0,0,1,9.35,13.983l-.629-.266a1.986,1.986,0,0,0-2.492.837L4.01,18.4a1.986,1.986,0,0,0,.521,2.581l2.1,1.589a26.673,26.673,0,0,0-1.275,4.788l-2.618.328A1.986,1.986,0,0,0,1,29.651v4.436a1.986,1.986,0,0,0,1.74,1.971l2.618.328a26.673,26.673,0,0,0,1.275,4.788l-2.1,1.589a1.986,1.986,0,0,0-.521,2.577L6.232,49.18a1.986,1.986,0,0,0,2.492.837l2.43-1.026a26.908,26.908,0,0,0,3.5,3.5l-1.026,2.429a1.986,1.986,0,0,0,.837,2.492l3.842,2.218a1.986,1.986,0,0,0,2.581-.521l1.589-2.1a26.673,26.673,0,0,0,4.788,1.275l.328,2.618a1.986,1.986,0,0,0,1.965,1.74H34a1.986,1.986,0,0,0,1.971-1.74L36.3,58.29a26.672,26.672,0,0,0,4.788-1.275l1.589,2.1a1.986,1.986,0,0,0,2.577.521l3.842-2.218a1.986,1.986,0,0,0,.837-2.492Z" transform="translate(-0.007 -0.097)" fill="#faaf42"/>
      <path id="Trazado_897980" data-name="Trazado 897980" d="M31.926,10A21.887,21.887,0,1,0,53.813,31.887,21.887,21.887,0,0,0,31.926,10Zm0,41.787a19.9,19.9,0,1,1,19.9-19.9A19.9,19.9,0,0,1,31.926,51.787Z" transform="translate(-0.071 -0.071)"/>
      <path id="Trazado_897981" data-name="Trazado 897981" d="M60.935,26.6l-1.9-.237A27.793,27.793,0,0,0,58.1,22.82l1.517-1.149a2.979,2.979,0,0,0,.782-3.863l-2.214-3.844a2.979,2.979,0,0,0-3.741-1.255l-1.76.743a28.079,28.079,0,0,0-2.589-2.589L50.835,9.1a2.979,2.979,0,0,0-1.256-3.742L45.737,3.147a2.985,2.985,0,0,0-3.864.781L40.724,5.447A27.861,27.861,0,0,0,37.183,4.5l-.237-1.9A2.979,2.979,0,0,0,33.99,0H29.554A2.979,2.979,0,0,0,26.6,2.609l-.237,1.9a27.86,27.86,0,0,0-3.541.942L21.672,3.929a2.985,2.985,0,0,0-3.864-.781L13.965,5.362A2.979,2.979,0,0,0,12.709,9.1l.743,1.759a28.078,28.078,0,0,0-2.589,2.589L9.1,12.709a2.979,2.979,0,0,0-3.742,1.255L3.147,17.808a2.979,2.979,0,0,0,.781,3.862l1.518,1.15a27.791,27.791,0,0,0-.941,3.541l-1.9.237A2.979,2.979,0,0,0,0,29.554V33.99a2.979,2.979,0,0,0,2.609,2.956l1.9.237a27.792,27.792,0,0,0,.941,3.541L3.93,41.873a2.979,2.979,0,0,0-.782,3.863L5.366,49.58A2.985,2.985,0,0,0,9.1,50.835l1.76-.743a28.077,28.077,0,0,0,2.589,2.589l-.744,1.758a2.979,2.979,0,0,0,1.256,3.742L17.807,60.4a2.984,2.984,0,0,0,3.864-.781L22.82,58.1a27.862,27.862,0,0,0,3.541.942l.237,1.9a2.979,2.979,0,0,0,2.956,2.605H33.99a2.979,2.979,0,0,0,2.956-2.609l.237-1.9a27.86,27.86,0,0,0,3.541-.942l1.149,1.518a2.985,2.985,0,0,0,3.864.781l3.842-2.218a2.979,2.979,0,0,0,1.256-3.738l-.743-1.759a28.076,28.076,0,0,0,2.589-2.589l1.759.742a2.979,2.979,0,0,0,3.741-1.253L60.4,45.736a2.979,2.979,0,0,0-.781-3.862L58.1,40.724a27.793,27.793,0,0,0,.941-3.541l1.9-.237a2.979,2.979,0,0,0,2.605-2.956V29.554A2.979,2.979,0,0,0,60.935,26.6Zm.624,7.392a.993.993,0,0,1-.87.986L58.07,35.3a.993.993,0,0,0-.856.819,25.684,25.684,0,0,1-1.227,4.609.993.993,0,0,0,.332,1.136l2.1,1.589a.993.993,0,0,1,.261,1.291l-2.218,3.844a.993.993,0,0,1-1.246.416l-2.43-1.025a.993.993,0,0,0-1.154.277,26.108,26.108,0,0,1-3.376,3.376.993.993,0,0,0-.28,1.149L49,55.213a.993.993,0,0,1-.418,1.246l-3.837,2.22a.993.993,0,0,1-1.291-.26l-1.589-2.1a.993.993,0,0,0-1.137-.332,25.785,25.785,0,0,1-4.61,1.227.993.993,0,0,0-.818.855l-.328,2.618a.993.993,0,0,1-.986.87H29.554a.993.993,0,0,1-.986-.87l-.328-2.618a.993.993,0,0,0-.818-.855,25.785,25.785,0,0,1-4.61-1.227.993.993,0,0,0-1.137.332l-1.589,2.1a.993.993,0,0,1-1.291.26L14.953,56.46a.993.993,0,0,1-.417-1.246l1.025-2.429a.993.993,0,0,0-.28-1.149A26.106,26.106,0,0,1,11.9,48.261a.993.993,0,0,0-1.15-.281L8.331,49a.993.993,0,0,1-1.245-.417L4.865,44.743a.993.993,0,0,1,.261-1.291l2.1-1.589a.993.993,0,0,0,.332-1.136,25.685,25.685,0,0,1-1.227-4.609.993.993,0,0,0-.856-.819l-2.618-.328a.993.993,0,0,1-.868-.982V29.554a.993.993,0,0,1,.87-.986l2.618-.328a.993.993,0,0,0,.856-.819,25.685,25.685,0,0,1,1.227-4.609.993.993,0,0,0-.332-1.136l-2.1-1.589A.993.993,0,0,1,4.867,18.8l2.218-3.844a.993.993,0,0,1,1.246-.416l2.43,1.025a.993.993,0,0,0,1.154-.277,26.106,26.106,0,0,1,3.376-3.376.993.993,0,0,0,.28-1.149L14.54,8.332a.993.993,0,0,1,.418-1.246L18.8,4.865a.993.993,0,0,1,1.291.26l1.589,2.1a.993.993,0,0,0,1.137.332,25.784,25.784,0,0,1,4.61-1.227.993.993,0,0,0,.818-.855l.328-2.618a.993.993,0,0,1,.981-.868H33.99a.993.993,0,0,1,.986.87L35.3,5.474a.993.993,0,0,0,.818.855,25.784,25.784,0,0,1,4.61,1.227.993.993,0,0,0,1.137-.332l1.589-2.1a.993.993,0,0,1,1.291-.26l3.843,2.219a.993.993,0,0,1,.417,1.246l-1.025,2.429a.993.993,0,0,0,.276,1.154,26.107,26.107,0,0,1,3.376,3.376.993.993,0,0,0,1.15.281l2.43-1.026a.993.993,0,0,1,1.245.417L58.679,18.8a.993.993,0,0,1-.261,1.291l-2.1,1.589a.993.993,0,0,0-.332,1.136,25.684,25.684,0,0,1,1.227,4.609.993.993,0,0,0,.856.819l2.618.328a.993.993,0,0,1,.87.986Z" transform="translate(0 0)"/>
      <path id="Trazado_897982" data-name="Trazado 897982" d="M41.09,36.881,36.078,31.87l8.228-8.225a.993.993,0,0,0,.271-.506l.7-3.466A.993.993,0,0,0,44.1,18.5l-3.466.7a1,1,0,0,0-.507.271L31.9,27.7l-5.006-5.014a3.972,3.972,0,0,0-.614-4.818l-.7-.7a3.966,3.966,0,0,0-5.611,0,.993.993,0,0,0,0,1.4l1.4,1.4a.993.993,0,0,1,0,1.4,1.013,1.013,0,0,1-1.4,0l-1.4-1.4a.993.993,0,0,0-1.4,0,3.972,3.972,0,0,0,0,5.611l.7.7a3.972,3.972,0,0,0,4.819.613l5.011,5.011-.632.633a.993.993,0,0,0-1.39.007l-7.025,7.025a3.934,3.934,0,0,0,5.56,5.56l7.026-7.026a.993.993,0,0,0,.007-1.39l.633-.633L36.88,41.09a3.971,3.971,0,0,0,.614,4.818l.7.7a3.966,3.966,0,0,0,5.611,0,.993.993,0,0,0,0-1.4l-1.4-1.4a.993.993,0,0,1,0-1.4,1.013,1.013,0,0,1,1.4,0l1.4,1.4a.993.993,0,0,0,1.4,0,3.971,3.971,0,0,0,0-5.611l-.7-.7a3.972,3.972,0,0,0-4.819-.61Zm.228-15.8,1.711-.343-.341,1.714L29.835,35.306l-1.369-1.368ZM23.473,24.874a.993.993,0,0,0-1.4,0,1.986,1.986,0,0,1-2.8,0l-.7-.7a1.986,1.986,0,0,1-.512-1.91l.511.51a3.046,3.046,0,0,0,4.209,0,2.979,2.979,0,0,0,0-4.208l-.512-.513a2.018,2.018,0,0,1,1.913.515l.7.7a1.986,1.986,0,0,1,0,2.8.993.993,0,0,0,0,1.4L30.5,29.1l-1.4,1.4ZM22.8,43.727a1.948,1.948,0,1,1-2.754-2.756l6.323-6.323L29.124,37.4Zm22.92-2.216L45.207,41A3.046,3.046,0,0,0,41,41a2.979,2.979,0,0,0,0,4.208l.512.513a2.019,2.019,0,0,1-1.913-.515l-.7-.7a1.986,1.986,0,0,1,0-2.8.993.993,0,0,0,0-1.4l-5.621-5.625,1.4-1.4L40.3,38.9a.993.993,0,0,0,1.4,0,1.986,1.986,0,0,1,2.8,0l.7.7a1.986,1.986,0,0,1,.513,1.911Z" transform="translate(-0.114 -0.114)"/>
      <path id="Trazado_897983" data-name="Trazado 897983" d="M26.666,37.291a.993.993,0,0,0-1.4,0l-3.972,3.972a.993.993,0,1,0,1.4,1.4l3.971-3.972A.993.993,0,0,0,26.666,37.291Z" transform="translate(-0.15 -0.264)"/>
    </g>
  </g>
</svg>
