<svg xmlns="http://www.w3.org/2000/svg" xmlns:xlink="http://www.w3.org/1999/xlink" width="102.031" height="102.032" viewBox="0 0 102.031 102.032">
  <defs>
    <filter id="Trazado_874925" x="0" y="0" width="102.031" height="102.032" filterUnits="userSpaceOnUse">
      <feOffset dy="3" input="SourceAlpha"/>
      <feGaussianBlur stdDeviation="3" result="blur"/>
      <feFlood flood-opacity="0.161"/>
      <feComposite operator="in" in2="blur"/>
      <feComposite in="SourceGraphic"/>
    </filter>
  </defs>
  <g id="Grupo_1110298" data-name="Grupo 1110298" transform="translate(9 5.884)">
    <g transform="matrix(1, 0, 0, 1, -9, -5.88)" filter="url(#Trazado_874925)">
      <g id="Trazado_874925-2" data-name="Trazado 874925" transform="translate(9 6)" fill="#efd42f">
        <path d="M 42.01562881469727 82.53167724609375 C 36.54539489746094 82.53167724609375 31.23958206176758 81.46066284179688 26.24558258056641 79.34838104248047 C 21.42118263244629 77.30782318115234 17.0881233215332 74.38629913330078 13.36675834655762 70.66493225097656 C 9.645393371582031 66.94356536865234 6.723852157592773 62.61050796508789 4.683310985565186 57.7861213684082 C 2.571028709411621 52.79212188720703 1.50000524520874 47.48632049560547 1.50000524520874 42.01608657836914 C 1.50000524520874 36.54536819458008 2.571028709411621 31.23956871032715 4.683310985565186 26.24556732177734 C 6.723852157592773 21.42116737365723 9.645393371582031 17.08810997009277 13.36675834655762 13.36674404144287 C 17.0881233215332 9.645380020141602 21.42118263244629 6.723850250244141 26.24558258056641 4.683309078216553 C 31.23958206176758 2.571015119552612 36.54539489746094 1.500003337860107 42.01562881469727 1.500003337860107 C 47.48586273193359 1.500003337860107 52.79167556762695 2.571015119552612 57.78568649291992 4.683309078216553 C 62.61007690429688 6.723850250244141 66.94314575195312 9.645380020141602 70.66451263427734 13.36674404144287 C 74.38587951660156 17.08810997009277 77.30741882324219 21.42116737365723 79.34796142578125 26.24556732177734 C 81.46024322509766 31.23956871032715 82.53126525878906 36.54536819458008 82.53126525878906 42.01560211181641 C 82.53126525878906 47.48632049560547 81.46024322509766 52.79212188720703 79.34796142578125 57.7861213684082 C 77.30741882324219 62.61050796508789 74.38587951660156 66.94356536865234 70.66451263427734 70.66493225097656 C 66.94314575195312 74.38629913330078 62.61007690429688 77.30782318115234 57.78568649291992 79.34838104248047 C 52.79167556762695 81.46066284179688 47.48586273193359 82.53167724609375 42.01562881469727 82.53167724609375 Z" stroke="none"/>
        <path d="M 42.01562881469727 3 C 36.74723052978516 3 31.63801574707031 4.031143188476562 26.82989501953125 6.064811706542969 C 22.18430709838867 8.029731750488281 18.01150512695312 10.84330749511719 14.42741394042969 14.42739868164062 C 10.84332275390625 18.01148986816406 8.029731750488281 22.18429183959961 6.064811706542969 26.82989120483398 C 4.031150817871094 31.63800048828125 3 36.74720001220703 3 42.01607894897461 C 3 47.28447723388672 4.031150817871094 52.39369201660156 6.064811706542969 57.20179748535156 C 8.029731750488281 61.84738540649414 10.84332275390625 66.02018737792969 14.42741394042969 69.60427856445312 C 18.01150512695312 73.18836975097656 22.18430709838867 76.00196075439453 26.82989501953125 77.96688079833984 C 31.63801574707031 80.00053405761719 36.74723052978516 81.03167724609375 42.01562881469727 81.03167724609375 C 47.28402709960938 81.03167724609375 52.39324188232422 80.00053405761719 57.20134735107422 77.96688079833984 C 61.84694671630859 76.00196075439453 66.01974487304688 73.18836975097656 69.60384368896484 69.60427856445312 C 73.18793487548828 66.02018737792969 76.00152587890625 61.84738540649414 77.96644592285156 57.20179748535156 C 80.00010681152344 52.39369201660156 81.03125762939453 47.28447723388672 81.03125762939453 42.01559829711914 C 81.03125762939453 36.74720001220703 80.00010681152344 31.63800048828125 77.96644592285156 26.82989120483398 C 76.00152587890625 22.18429183959961 73.18793487548828 18.01148986816406 69.60384368896484 14.42739868164062 C 66.01974487304688 10.84330749511719 61.84694671630859 8.029731750488281 57.20134735107422 6.064811706542969 C 52.39324188232422 4.031143188476562 47.28402709960938 3 42.01562881469727 3 M 42.01562881469727 0 C 65.22021484375 0 84.03125762939453 18.81102752685547 84.03125762939453 42.01559829711914 L 84.03125762939453 42.01607894897461 C 84.03125762939453 65.22066497802734 65.22021484375 84.03167724609375 42.01562881469727 84.03167724609375 C 18.81102752685547 84.03167724609375 0 65.22066497802734 0 42.01607894897461 L 0 42.01559829711914 C 0 18.81102752685547 18.81102752685547 0 42.01562881469727 0 Z" stroke="none" fill="#fff"/>
      </g>
    </g>
    <g id="Grupo_1110539" data-name="Grupo 1110539" transform="translate(21 17.116)">
      <g id="Grupo_1110557" data-name="Grupo 1110557" transform="translate(0.804 0.804)">
        <g id="Grupo_1110539-2" data-name="Grupo 1110539" transform="translate(14.481 35.398)">
          <path id="Trazado_901178" data-name="Trazado 901178" d="M156.827,364.827H152V360h11.263v4.827h-6.436Z" transform="translate(-152 -360)" fill="#fcd770"/>
        </g>
        <g id="Grupo_1110540" data-name="Grupo 1110540" transform="translate(16.09 1.609)">
          <path id="Trazado_901179" data-name="Trazado 901179" d="M168,24h4.827v3.218H168Z" transform="translate(-168 -24)" fill="#fcd770"/>
        </g>
        <g id="Grupo_1110541" data-name="Grupo 1110541" transform="translate(16.09 11.263)">
          <path id="Trazado_901180" data-name="Trazado 901180" d="M168,120h4.827v3.218H168Z" transform="translate(-168 -120)" fill="#fcd770"/>
        </g>
        <g id="Grupo_1110542" data-name="Grupo 1110542" transform="translate(33.789)">
          <path id="Trazado_901181" data-name="Trazado 901181" d="M350.436,10.413v8.045a2.414,2.414,0,0,1-2.414,2.413h-1.609A2.414,2.414,0,0,1,344,18.458V10.413A2.414,2.414,0,0,1,346.414,8h1.609A2.414,2.414,0,0,1,350.436,10.413Z" transform="translate(-344 -8)" fill="#969faa"/>
        </g>
        <g id="Grupo_1110543" data-name="Grupo 1110543" transform="translate(33.789 35.398)">
          <path id="Trazado_901182" data-name="Trazado 901182" d="M350.436,362.414v8.045a2.414,2.414,0,0,1-2.414,2.414h-1.609A2.414,2.414,0,0,1,344,370.458v-8.045A2.414,2.414,0,0,1,346.414,360h1.609A2.414,2.414,0,0,1,350.436,362.414Z" transform="translate(-344 -360)" fill="#969faa"/>
        </g>
        <g id="Grupo_1110544" data-name="Grupo 1110544" transform="translate(0 35.398)">
          <path id="Trazado_901183" data-name="Trazado 901183" d="M14.436,368.045v2.414a2.414,2.414,0,0,1-2.413,2.414H10.413A2.414,2.414,0,0,1,8,370.458v-8.045A2.414,2.414,0,0,1,10.413,360h1.609a2.414,2.414,0,0,1,2.413,2.414v5.631Z" transform="translate(-8 -360)" fill="#969faa"/>
        </g>
        <g id="Grupo_1110545" data-name="Grupo 1110545">
          <path id="Trazado_901184" data-name="Trazado 901184" d="M14.436,16.045v2.413a2.414,2.414,0,0,1-2.413,2.413H10.413A2.414,2.414,0,0,1,8,18.458V10.413A2.414,2.414,0,0,1,10.413,8h1.609a2.414,2.414,0,0,1,2.413,2.413v5.631Z" transform="translate(-8 -8)" fill="#969faa"/>
        </g>
        <g id="Grupo_1110546" data-name="Grupo 1110546" transform="translate(6.436 40.225)">
          <path id="Trazado_901185" data-name="Trazado 901185" d="M72,408h4.827v3.218H72Z" transform="translate(-72 -408)" fill="#ccd1d9"/>
        </g>
        <g id="Grupo_1110547" data-name="Grupo 1110547" transform="translate(14.481 40.225)">
          <path id="Trazado_901186" data-name="Trazado 901186" d="M163.263,408v3.218H152V408h11.263Z" transform="translate(-152 -408)" fill="#ccd1d9"/>
        </g>
        <g id="Grupo_1110548" data-name="Grupo 1110548" transform="translate(28.962 40.225)">
          <path id="Trazado_901187" data-name="Trazado 901187" d="M296,408h4.827v3.218H296Z" transform="translate(-296 -408)" fill="#ccd1d9"/>
        </g>
        <g id="Grupo_1110549" data-name="Grupo 1110549" transform="translate(30.571 4.827)">
          <path id="Trazado_901188" data-name="Trazado 901188" d="M312,56h3.218v3.218H312Z" transform="translate(-312 -56)" fill="#ccd1d9"/>
        </g>
        <g id="Grupo_1110550" data-name="Grupo 1110550" transform="translate(12.872 4.827)">
          <path id="Trazado_901189" data-name="Trazado 901189" d="M150.481,56v6.436H136V56h14.481Z" transform="translate(-136 -56)" fill="#ccd1d9"/>
        </g>
        <g id="Grupo_1110551" data-name="Grupo 1110551" transform="translate(6.436 4.827)">
          <path id="Trazado_901190" data-name="Trazado 901190" d="M72,56h3.218v3.218H72Z" transform="translate(-72 -56)" fill="#ccd1d9"/>
        </g>
        <g id="Grupo_1110552" data-name="Grupo 1110552" transform="translate(27.353 1.609)">
          <path id="Trazado_901191" data-name="Trazado 901191" d="M283.218,30.436V40.09H280V24h3.218v6.436Z" transform="translate(-280 -24)" fill="#aab2bd"/>
        </g>
        <g id="Grupo_1110553" data-name="Grupo 1110553" transform="translate(9.654 1.609)">
          <path id="Trazado_901192" data-name="Trazado 901192" d="M107.218,33.654V40.09H104V24h3.218v9.654Z" transform="translate(-104 -24)" fill="#aab2bd"/>
        </g>
        <g id="Grupo_1110554" data-name="Grupo 1110554" transform="translate(7.24 17.699)">
          <path id="Trazado_901193" data-name="Trazado 901193" d="M105.744,187.218v11.263l-4.022,3.218v11.263H98.5V201.7H87.24v11.263H84.022V201.7L80,198.481V187.218L82.413,184H103.33Z" transform="translate(-80 -184)" fill="#aab2bd"/>
        </g>
        <g id="Grupo_1110555" data-name="Grupo 1110555" transform="translate(10.458 20.917)">
          <path id="Trazado_901194" data-name="Trazado 901194" d="M118.436,227.263h-4.5L112,225.716v-8.643l.8-1.073h17.7l.8,1.073v8.643l-1.934,1.547H128.09v-3.218h-3.218v3.218Z" transform="translate(-112 -216)" fill="#ccd1d9"/>
        </g>
        <g id="Grupo_1110556" data-name="Grupo 1110556" transform="translate(23.33 28.962)">
          <path id="Trazado_901195" data-name="Trazado 901195" d="M243.218,296v3.218H240V296h3.218Z" transform="translate(-240 -296)" fill="#fcd770"/>
        </g>
      </g>
      <g id="Grupo_1110558" data-name="Grupo 1110558">
        <path id="Trazado_901196" data-name="Trazado 901196" d="M37.007,14.481h1.609a3.222,3.222,0,0,0,3.218-3.218V3.218A3.222,3.222,0,0,0,38.616,0H37.007a3.222,3.222,0,0,0-3.218,3.218V4.827H32.18V1.609H27.353V4.827H22.526V1.609H16.09V4.827H14.481V1.609H9.654V4.827H8.045V3.218A3.222,3.222,0,0,0,4.827,0H3.218A3.222,3.222,0,0,0,0,3.218v8.045a3.222,3.222,0,0,0,3.218,3.218H4.827a3.222,3.222,0,0,0,3.218-3.218V9.654H9.654v8.581L7.24,21.453V33.371l4.022,3.218v3.636H8.045V38.616A3.222,3.222,0,0,0,4.827,35.4H3.218A3.222,3.222,0,0,0,0,38.616v8.045a3.222,3.222,0,0,0,3.218,3.218H4.827a3.222,3.222,0,0,0,3.218-3.218V45.052h3.218V48.27H16.09V45.052h9.654V48.27h4.827V45.052h3.218v1.609a3.222,3.222,0,0,0,3.218,3.218h1.609a3.222,3.222,0,0,0,3.218-3.218V38.616A3.222,3.222,0,0,0,38.616,35.4H37.007a3.222,3.222,0,0,0-3.218,3.218v1.609H30.571V36.589l4.022-3.218V21.453L32.18,18.235V9.654h1.609v1.609A3.222,3.222,0,0,0,37.007,14.481ZM35.4,3.218a1.611,1.611,0,0,1,1.609-1.609h1.609a1.611,1.611,0,0,1,1.609,1.609v8.045a1.611,1.611,0,0,1-1.609,1.609H37.007A1.611,1.611,0,0,1,35.4,11.263ZM6.436,11.263a1.611,1.611,0,0,1-1.609,1.609H3.218a1.611,1.611,0,0,1-1.609-1.609V3.218A1.611,1.611,0,0,1,3.218,1.609H4.827A1.611,1.611,0,0,1,6.436,3.218Zm0,35.4A1.611,1.611,0,0,1,4.827,48.27H3.218a1.611,1.611,0,0,1-1.609-1.609V38.616a1.611,1.611,0,0,1,1.609-1.609H4.827a1.611,1.611,0,0,1,1.609,1.609ZM35.4,38.616a1.611,1.611,0,0,1,1.609-1.609h1.609a1.611,1.611,0,0,1,1.609,1.609v8.045a1.611,1.611,0,0,1-1.609,1.609H37.007A1.611,1.611,0,0,1,35.4,46.661Zm-4.827-35.4V17.7H28.962V3.218ZM17.7,12.872h3.218v1.609H17.7Zm4.827,3.218V12.872h4.827V17.7H14.481V12.872H16.09V16.09ZM17.7,3.218h3.218V4.827H17.7Zm9.654,3.218v4.827H14.481V6.436ZM12.872,3.218V17.7H11.263V3.218ZM8.045,8.045V6.436H9.654V8.045Zm0,35.4V41.834h3.218v1.609Zm17.7-3.218H24.135V38.616H22.526v1.609H20.917V38.616H19.308v1.609H16.09V37.007h9.654ZM16.09,43.443V41.834h9.654v1.609Zm17.7-1.609v1.609H30.571V41.834Zm-.8-9.236-4.022,3.218V46.661H27.353V35.4H14.481V46.661H12.872V35.816L8.849,32.6V21.99l2.011-2.682H30.973l2.011,2.682Zm-.8-24.553V6.436h1.609V8.045Z"/>
        <path id="Trazado_901197" data-name="Trazado 901197" d="M105.207,208,104,209.609v9.3l2.456,1.964h16.006l2.456-1.964v-9.3L123.71,208Zm14.883,9.654v1.609h-1.609v-1.609Zm3.218.48-1.411,1.129h-.2v-3.218H120.09v-4.827h-1.609v4.827h-1.609v3.218h-4.827v-8.045h-1.609v8.045h-1.609v-8.045h-1.609v8.045h-.2l-1.411-1.129v-7.989l.4-.536h16.894l.4.536Z" transform="translate(-93.542 -187.083)"/>
        <path id="Trazado_901198" data-name="Trazado 901198" d="M160,80h3.218v1.609H160Z" transform="translate(-143.91 -71.955)"/>
        <ellipse id="Elipse_11645" data-name="Elipse 11645" cx="0.715" cy="1.072" rx="0.715" ry="1.072" transform="translate(24.492 7.781)"/>
      </g>
    </g>
  </g>
</svg>
