<svg xmlns="http://www.w3.org/2000/svg" xmlns:xlink="http://www.w3.org/1999/xlink" width="97.418" height="97.418" viewBox="0 0 97.418 97.418">
  <defs>
    <filter id="Trazado_874925" x="0" y="0" width="97.418" height="97.418" filterUnits="userSpaceOnUse">
      <feOffset dy="3" input="SourceAlpha"/>
      <feGaussianBlur stdDeviation="3" result="blur"/>
      <feFlood flood-opacity="0.161"/>
      <feComposite operator="in" in2="blur"/>
      <feComposite in="SourceGraphic"/>
    </filter>
  </defs>
  <g id="Grupo_1110237" data-name="Grupo 1110237" transform="translate(9 6)">
    <g transform="matrix(1, 0, 0, 1, -9, -6)" filter="url(#Trazado_874925)">
      <g id="Trazado_874925-2" data-name="Trazado 874925" transform="translate(9 6)" fill="#efd42f">
        <path d="M 39.708984375 77.91841888427734 C 34.55014038085938 77.91841888427734 29.54641723632812 76.90838623046875 24.83678436279297 74.9163818359375 C 20.28706169128418 72.99201965332031 16.20068359375 70.23679351806641 12.6911506652832 66.72727203369141 C 9.181629180908203 63.21773910522461 6.426406383514404 59.13136291503906 4.502039909362793 54.58163833618164 C 2.510040044784546 49.87200546264648 1.500006556510925 44.86828231811523 1.500006556510925 39.70943832397461 C 1.500006556510925 34.55014038085938 2.510040044784546 29.54641723632812 4.502039909362793 24.83678245544434 C 6.426406383514404 20.28706169128418 9.181629180908203 16.20068359375 12.6911506652832 12.69114971160889 C 16.20068359375 9.181628227233887 20.28706169128418 6.426405429840088 24.83678436279297 4.502038955688477 C 29.54641723632812 2.51003885269165 34.55014038085938 1.500005602836609 39.708984375 1.500005602836609 C 44.86782836914062 1.500005602836609 49.87156295776367 2.51003885269165 54.58118438720703 4.502038955688477 C 59.13090515136719 6.426405429840088 63.21728515625 9.181628227233887 66.72681427001953 12.69114971160889 C 70.23635101318359 16.20068359375 72.99156188964844 20.28706169128418 74.91593933105469 24.83678245544434 C 76.90794372558594 29.54641723632812 77.91797637939453 34.55014038085938 77.91797637939453 39.708984375 C 77.91797637939453 44.86828231811523 76.90794372558594 49.87200546264648 74.91593933105469 54.58163833618164 C 72.99156188964844 59.13136291503906 70.23635101318359 63.21773910522461 66.72681427001953 66.72727203369141 C 63.21728515625 70.23679351806641 59.13090515136719 72.99201965332031 54.58118438720703 74.9163818359375 C 49.87156295776367 76.90838623046875 44.86782836914062 77.91841888427734 39.708984375 77.91841888427734 Z" stroke="none"/>
        <path d="M 39.708984375 2.999992370605469 C 34.75198364257812 2.999992370605469 29.94484710693359 3.97015380859375 25.42110824584961 5.883529663085938 C 21.05019760131836 7.732276916503906 17.12407302856445 10.37955474853516 13.75180816650391 13.75180816650391 C 10.37956237792969 17.12406921386719 7.732284545898438 21.05019378662109 5.883537292480469 25.42110443115234 C 3.970161437988281 29.94484329223633 3 34.75197982788086 3 39.70944213867188 C 3 44.66644287109375 3.970161437988281 49.47357940673828 5.883537292480469 53.99730682373047 C 7.732284545898438 58.36823272705078 10.37956237792969 62.29434204101562 13.75180816650391 65.66660308837891 C 17.12407302856445 69.03885650634766 21.05018615722656 71.68611907958984 25.42110824584961 73.53486633300781 C 29.94484710693359 75.4482421875 34.75198364257812 76.41840362548828 39.708984375 76.41840362548828 C 44.66598510742188 76.41840362548828 49.47312164306641 75.4482421875 53.99685668945312 73.53486633300781 C 58.36778259277344 71.68611907958984 62.29389953613281 69.03885650634766 65.66616058349609 65.66660308837891 C 69.03840637207031 62.29434204101562 71.68568420410156 58.36823272705078 73.53443145751953 53.99730682373047 C 75.44780731201172 49.47357940673828 76.41796875 44.66644287109375 76.41796875 39.70898056030273 C 76.41796875 34.75197982788086 75.44780731201172 29.94484329223633 73.53443145751953 25.42110443115234 C 71.68568420410156 21.05019378662109 69.03840637207031 17.12406921386719 65.66616058349609 13.75180816650391 C 62.29389953613281 10.37955474853516 58.36777114868164 7.732276916503906 53.99685668945312 5.883529663085938 C 49.47312164306641 3.97015380859375 44.66598510742188 2.999992370605469 39.708984375 2.999992370605469 M 39.708984375 -7.62939453125e-06 C 61.6396484375 -7.62939453125e-06 79.41796875 17.77831649780273 79.41796875 39.70898056030273 L 79.41796875 39.70944213867188 C 79.41796875 61.64010620117188 61.6396484375 79.41840362548828 39.708984375 79.41840362548828 C 17.7783203125 79.41840362548828 0 61.64010620117188 0 39.70944213867188 L 0 39.70898056030273 C 0 17.77831649780273 17.7783203125 -7.62939453125e-06 39.708984375 -7.62939453125e-06 Z" stroke="none" fill="#fff"/>
      </g>
    </g>
    <g id="Layer_2" data-name="Layer 2" transform="translate(12.131 12.131)">
      <path id="Trazado_897972" data-name="Trazado 897972" d="M53.206,24.206l-2.285-.286a23.278,23.278,0,0,0-1.113-4.178l1.83-1.386a1.733,1.733,0,0,0,.455-2.253l-1.936-3.353a1.733,1.733,0,0,0-2.175-.73l-2.12.9A23.483,23.483,0,0,0,42.8,9.857l.9-2.115a1.733,1.733,0,0,0-.73-2.175L39.616,3.631a1.733,1.733,0,0,0-2.249.455l-1.386,1.83A23.278,23.278,0,0,0,31.8,4.8l-.286-2.285A1.733,1.733,0,0,0,29.8,1H25.926a1.733,1.733,0,0,0-1.72,1.519L23.92,4.8a23.278,23.278,0,0,0-4.178,1.113l-1.386-1.83A1.733,1.733,0,0,0,16.1,3.631L12.754,5.567a1.733,1.733,0,0,0-.73,2.175l.9,2.12a23.482,23.482,0,0,0-3.057,3.057l-2.12-.9a1.733,1.733,0,0,0-2.175.73L3.631,16.108a1.733,1.733,0,0,0,.455,2.253l1.83,1.386A23.278,23.278,0,0,0,4.8,23.925l-2.285.286A1.733,1.733,0,0,0,1,25.926V29.8a1.733,1.733,0,0,0,1.519,1.72L4.8,31.8a23.278,23.278,0,0,0,1.113,4.178l-1.83,1.386a1.733,1.733,0,0,0-.455,2.249L5.567,42.97a1.733,1.733,0,0,0,2.175.73l2.12-.9a23.483,23.483,0,0,0,3.057,3.057l-.9,2.119a1.733,1.733,0,0,0,.73,2.175l3.353,1.936a1.733,1.733,0,0,0,2.253-.455l1.386-1.83a23.278,23.278,0,0,0,4.178,1.113l.286,2.285a1.733,1.733,0,0,0,1.715,1.518H29.8a1.733,1.733,0,0,0,1.72-1.519l.286-2.285a23.278,23.278,0,0,0,4.178-1.113l1.386,1.83a1.733,1.733,0,0,0,2.249.455l3.353-1.936a1.733,1.733,0,0,0,.73-2.175l-.9-2.12A23.483,23.483,0,0,0,45.863,42.8l2.12.9a1.733,1.733,0,0,0,2.175-.73l1.936-3.353a1.733,1.733,0,0,0-.455-2.249l-1.83-1.386A23.277,23.277,0,0,0,50.922,31.8l2.285-.286A1.733,1.733,0,0,0,54.724,29.8V25.926a1.733,1.733,0,0,0-1.519-1.72ZM27.935,46.133A18.234,18.234,0,1,1,46.169,27.9,18.234,18.234,0,0,1,27.935,46.133Z" transform="translate(-0.133 -0.133)" fill="#f8c460"/>
      <path id="Trazado_897973" data-name="Trazado 897973" d="M24.491,18.373l-.612-.613a2.6,2.6,0,0,0-3.671,0l1.224,1.224a1.73,1.73,0,1,1-2.447,2.447L17.76,20.206a2.6,2.6,0,0,0,0,3.671l.613.612a2.6,2.6,0,0,0,3.671,0L35.5,37.952a2.6,2.6,0,0,0,0,3.671l.612.613a2.6,2.6,0,0,0,3.671,0l-1.224-1.224a1.73,1.73,0,0,1,2.447-2.447l1.224,1.225a2.6,2.6,0,0,0,0-3.671l-.613-.612a2.6,2.6,0,0,0-3.671,0L24.491,22.043a2.6,2.6,0,0,0,0-3.671Z" transform="translate(-2.269 -2.269)" fill="#d6e4e8"/>
      <path id="Trazado_897974" data-name="Trazado 897974" d="M37.416,41.429l-.612-.612a2.6,2.6,0,0,1,0-3.671L23.343,23.685a2.6,2.6,0,0,1-3.671,0l-.612-.612a2.592,2.592,0,0,1-.761-1.832l-.539-.54a2.6,2.6,0,0,0,0,3.671l.612.612a2.6,2.6,0,0,0,3.671,0L35.5,38.446a2.6,2.6,0,0,0,0,3.671l.612.612a2.6,2.6,0,0,0,3.671,0l-.54-.539A2.592,2.592,0,0,1,37.416,41.429Z" transform="translate(-2.27 -2.763)" fill="#baced3"/>
      <path id="Trazado_897975" data-name="Trazado 897975" d="M25.383,33.368,29.013,37l-6.131,6.131A2.566,2.566,0,0,1,19.252,39.5Z" transform="translate(-2.47 -4.454)" fill="#7a838b"/>
      <path id="Trazado_897976" data-name="Trazado 897976" d="M27.3,35.557l-6.131,6.131a2.555,2.555,0,0,1-2.534.638,2.53,2.53,0,0,0,.638,1.1,2.565,2.565,0,0,0,3.629,0L29.03,37.29Z" transform="translate(-2.487 -4.746)" fill="#5d6972"/>
      <path id="Trazado_897977" data-name="Trazado 897977" d="M39.158,20.1l3.025-.6-.6,3.024L29.561,34.542l-2.42-2.42Z" transform="translate(-3.623 -2.603)" fill="#d6e4e8"/>
      <path id="Trazado_897978" data-name="Trazado 897978" d="M41.339,19.717a6.533,6.533,0,0,1-1.788,3.341L28.934,33.675l.867.867L41.816,22.524l.607-3.024Z" transform="translate(-3.862 -2.603)" fill="#baced3"/>
      <path id="Trazado_897979" data-name="Trazado 897979" d="M43.468,49.11a26.874,26.874,0,0,1-35.18-35.18L7.738,13.7a1.733,1.733,0,0,0-2.175.73L3.627,17.781a1.733,1.733,0,0,0,.455,2.253l1.83,1.386A23.278,23.278,0,0,0,4.8,25.6l-2.285.286A1.733,1.733,0,0,0,1,27.6v3.872a1.733,1.733,0,0,0,1.519,1.72L4.8,33.48a23.278,23.278,0,0,0,1.113,4.178l-1.83,1.386a1.733,1.733,0,0,0-.455,2.249l1.936,3.353a1.733,1.733,0,0,0,2.175.73l2.12-.9a23.483,23.483,0,0,0,3.057,3.057l-.9,2.119a1.733,1.733,0,0,0,.73,2.175l3.353,1.936a1.733,1.733,0,0,0,2.253-.455l1.386-1.83A23.278,23.278,0,0,0,23.925,52.6l.286,2.285A1.733,1.733,0,0,0,25.926,56.4H29.8a1.733,1.733,0,0,0,1.72-1.518L31.8,52.6a23.277,23.277,0,0,0,4.178-1.113l1.386,1.83a1.733,1.733,0,0,0,2.249.455l3.353-1.936a1.733,1.733,0,0,0,.73-2.175Z" transform="translate(-0.133 -1.81)" fill="#faaf42"/>
      <path id="Trazado_897980" data-name="Trazado 897980" d="M29.14,10a19.1,19.1,0,1,0,19.1,19.1A19.1,19.1,0,0,0,29.14,10Zm0,36.469A17.368,17.368,0,1,1,46.509,29.1,17.368,17.368,0,0,1,29.14,46.469Z" transform="translate(-1.34 -1.335)"/>
      <path id="Trazado_897981" data-name="Trazado 897981" d="M53.18,23.213l-1.655-.207a24.255,24.255,0,0,0-.821-3.09l1.324-1a2.6,2.6,0,0,0,.683-3.372l-1.932-3.355a2.6,2.6,0,0,0-3.265-1.1l-1.536.648a24.505,24.505,0,0,0-2.26-2.26l.649-1.535a2.6,2.6,0,0,0-1.1-3.266L39.916,2.747a2.6,2.6,0,0,0-3.372.682l-1,1.325a24.315,24.315,0,0,0-3.09-.822l-.207-1.654A2.6,2.6,0,0,0,29.664,0H25.793a2.6,2.6,0,0,0-2.58,2.277l-.207,1.654a24.314,24.314,0,0,0-3.09.822l-1-1.325a2.6,2.6,0,0,0-3.372-.682L12.188,4.679a2.6,2.6,0,0,0-1.1,3.266l.648,1.535a24.5,24.5,0,0,0-2.26,2.26l-1.535-.649a2.6,2.6,0,0,0-3.266,1.1L2.747,15.542a2.6,2.6,0,0,0,.682,3.371l1.325,1a24.254,24.254,0,0,0-.821,3.09l-1.655.207A2.6,2.6,0,0,0,0,25.793v3.872a2.6,2.6,0,0,0,2.277,2.58l1.655.207a24.255,24.255,0,0,0,.821,3.09l-1.324,1a2.6,2.6,0,0,0-.683,3.372L4.684,43.27a2.6,2.6,0,0,0,3.261,1.1l1.536-.648a24.5,24.5,0,0,0,2.26,2.26l-.649,1.535a2.6,2.6,0,0,0,1.1,3.266l3.353,1.936a2.6,2.6,0,0,0,3.372-.682l1-1.325a24.315,24.315,0,0,0,3.09.822l.207,1.654a2.6,2.6,0,0,0,2.58,2.274h3.872a2.6,2.6,0,0,0,2.58-2.277l.207-1.654a24.314,24.314,0,0,0,3.09-.822l1,1.325a2.6,2.6,0,0,0,3.372.682l3.353-1.936a2.6,2.6,0,0,0,1.1-3.262l-.648-1.535a24.5,24.5,0,0,0,2.26-2.26l1.535.647a2.6,2.6,0,0,0,3.265-1.094l1.936-3.355a2.6,2.6,0,0,0-.682-3.371l-1.325-1a24.257,24.257,0,0,0,.821-3.09l1.655-.207a2.6,2.6,0,0,0,2.274-2.58V25.793a2.6,2.6,0,0,0-2.277-2.58Zm.544,6.451a.867.867,0,0,1-.759.86l-2.285.286a.867.867,0,0,0-.747.715,22.416,22.416,0,0,1-1.071,4.022.867.867,0,0,0,.289.991l1.83,1.386a.867.867,0,0,1,.228,1.126l-1.936,3.355a.867.867,0,0,1-1.087.363l-2.12-.894a.867.867,0,0,0-1.007.242,22.785,22.785,0,0,1-2.946,2.946.867.867,0,0,0-.244,1l.894,2.119a.867.867,0,0,1-.365,1.087l-3.349,1.938a.867.867,0,0,1-1.126-.227l-1.386-1.83a.867.867,0,0,0-.992-.289,22.5,22.5,0,0,1-4.023,1.071.867.867,0,0,0-.714.746l-.286,2.285a.867.867,0,0,1-.86.759H25.793a.867.867,0,0,1-.86-.759l-.286-2.285a.867.867,0,0,0-.714-.746,22.5,22.5,0,0,1-4.023-1.071.867.867,0,0,0-.992.289l-1.386,1.83a.867.867,0,0,1-1.126.227L13.05,49.274a.867.867,0,0,1-.364-1.087l.894-2.119a.867.867,0,0,0-.244-1,22.784,22.784,0,0,1-2.946-2.946.867.867,0,0,0-1-.245l-2.115.894A.867.867,0,0,1,6.184,42.4L4.246,39.049a.867.867,0,0,1,.228-1.126L6.3,36.536a.867.867,0,0,0,.289-.991,22.416,22.416,0,0,1-1.071-4.022.867.867,0,0,0-.747-.715L2.49,30.521a.867.867,0,0,1-.757-.857V25.793a.867.867,0,0,1,.759-.86l2.285-.286a.867.867,0,0,0,.747-.715A22.416,22.416,0,0,1,6.6,19.909a.867.867,0,0,0-.289-.991l-1.83-1.386A.867.867,0,0,1,4.248,16.4L6.183,13.05a.867.867,0,0,1,1.087-.363l2.12.894a.867.867,0,0,0,1.007-.242,22.784,22.784,0,0,1,2.946-2.946.867.867,0,0,0,.244-1l-.9-2.119a.867.867,0,0,1,.365-1.087l3.354-1.938a.867.867,0,0,1,1.126.227L18.921,6.3a.867.867,0,0,0,.992.289,22.5,22.5,0,0,1,4.023-1.071.867.867,0,0,0,.714-.746l.286-2.285a.867.867,0,0,1,.856-.757h3.872a.867.867,0,0,1,.86.759l.286,2.285a.867.867,0,0,0,.714.746,22.5,22.5,0,0,1,4.023,1.071A.867.867,0,0,0,36.54,6.3l1.386-1.83a.867.867,0,0,1,1.126-.227l3.354,1.937a.867.867,0,0,1,.364,1.087l-.894,2.119a.867.867,0,0,0,.241,1.007,22.784,22.784,0,0,1,2.946,2.946.867.867,0,0,0,1,.245l2.12-.9a.867.867,0,0,1,1.087.364l1.937,3.35a.867.867,0,0,1-.228,1.126l-1.83,1.386a.867.867,0,0,0-.289.991,22.415,22.415,0,0,1,1.071,4.022.867.867,0,0,0,.747.715l2.285.286a.867.867,0,0,1,.759.86Z" transform="translate(0 0)"/>
      <path id="Trazado_897982" data-name="Trazado 897982" d="M37.9,34.224,33.523,29.85,40.7,22.672a.867.867,0,0,0,.237-.442l.607-3.025a.867.867,0,0,0-1.024-1.022L37.5,18.79a.875.875,0,0,0-.443.237l-7.18,7.181-4.369-4.376a3.466,3.466,0,0,0-.536-4.205l-.612-.612a3.461,3.461,0,0,0-4.9,0,.867.867,0,0,0,0,1.225l1.224,1.226a.867.867,0,0,1,0,1.222.884.884,0,0,1-1.222,0l-1.224-1.222a.867.867,0,0,0-1.225,0,3.466,3.466,0,0,0,0,4.9l.612.612a3.466,3.466,0,0,0,4.206.535l4.373,4.373-.552.553a.867.867,0,0,0-1.213.006l-6.131,6.131a3.433,3.433,0,0,0,4.852,4.852l6.131-6.131A.867.867,0,0,0,29.3,34.08l.553-.553,4.371,4.37a3.466,3.466,0,0,0,.536,4.205l.612.612a3.461,3.461,0,0,0,4.9,0,.867.867,0,0,0,0-1.225l-1.224-1.226a.867.867,0,0,1,0-1.222.884.884,0,0,1,1.222,0l1.224,1.224a.867.867,0,0,0,1.225,0,3.466,3.466,0,0,0,0-4.9l-.612-.612a3.466,3.466,0,0,0-4.206-.532Zm.2-13.788,1.493-.3-.3,1.5L28.074,32.848l-1.195-1.194ZM22.522,23.745a.867.867,0,0,0-1.225,0,1.733,1.733,0,0,1-2.445,0l-.613-.613a1.733,1.733,0,0,1-.447-1.667l.446.445a2.658,2.658,0,0,0,3.673,0,2.6,2.6,0,0,0,0-3.672l-.447-.448a1.761,1.761,0,0,1,1.67.45l.612.612a1.733,1.733,0,0,1,0,2.445.867.867,0,0,0,0,1.225l4.905,4.909-1.221,1.22ZM21.935,40.2a1.7,1.7,0,1,1-2.4-2.405l5.518-5.518,2.4,2.4Zm20-1.934-.447-.446a2.658,2.658,0,0,0-3.673,0,2.6,2.6,0,0,0,0,3.672l.447.448a1.762,1.762,0,0,1-1.67-.45l-.612-.612a1.733,1.733,0,0,1,0-2.445.867.867,0,0,0,0-1.225L31.078,32.3,32.3,31.076l4.909,4.908a.867.867,0,0,0,1.225,0,1.733,1.733,0,0,1,2.445,0l.613.613a1.733,1.733,0,0,1,.448,1.668Z" transform="translate(-2.136 -2.136)"/>
      <path id="Trazado_897983" data-name="Trazado 897983" d="M25.945,37.254a.867.867,0,0,0-1.225,0L21.254,40.72a.866.866,0,1,0,1.225,1.225l3.466-3.466A.867.867,0,0,0,25.945,37.254Z" transform="translate(-2.803 -4.939)"/>
    </g>
  </g>
</svg>
